<svg width="100" height="100" viewBox="0 0 100 100" fill="none" xmlns="http://www.w3.org/2000/svg">
<g clip-path="url(#clip0_101_13)">
<path d="M8.12061 76.125V23H26.0711C30.2215 23 33.6282 23.709 36.2914 25.1271C38.9546 26.5278 40.926 28.456 42.2057 30.9117C43.4855 33.3673 44.1252 36.1602 44.1252 39.2903C44.1252 42.4204 43.4855 45.1959 42.2057 47.6171C40.926 50.0381 38.9632 51.9404 36.3173 53.3238C33.6714 54.69 30.2907 55.373 26.1748 55.373H11.6484V49.5625H25.9674C28.8034 49.5625 31.0861 49.1475 32.8154 48.3174C34.562 47.4873 35.8244 46.3114 36.6027 44.7895C37.3981 43.2505 37.7959 41.4174 37.7959 39.2903C37.7959 37.1633 37.3981 35.3042 36.6027 33.7132C35.8072 32.1222 34.5361 30.8944 32.7895 30.0297C31.0429 29.1478 28.7342 28.7068 25.8635 28.7068H14.5537V76.125H8.12061ZM33.1267 52.2602L46.2004 76.125H38.7297L25.8635 52.2602H33.1267Z" fill="#4333FF"/>
<path d="M54.8449 76.125V23H72.7953C76.9631 23 80.3699 23.7523 83.0158 25.2568C85.6789 26.744 87.6503 28.7587 88.93 31.3008C90.2097 33.8429 90.8496 36.679 90.8496 39.809C90.8496 42.9391 90.2097 45.7839 88.93 48.3433C87.6677 50.9027 85.7135 52.9434 83.0676 54.4651C80.4217 55.9696 77.0322 56.7219 72.8992 56.7219H60.033V51.0152H72.6916C75.5451 51.0152 77.8363 50.5223 79.5657 49.5366C81.295 48.5509 82.5488 47.2193 83.3269 45.5419C84.1225 43.847 84.5203 41.9361 84.5203 39.809C84.5203 37.682 84.1225 35.7798 83.3269 34.1023C82.5488 32.4248 81.2864 31.1106 79.5398 30.1594C77.7932 29.191 75.4759 28.7068 72.5879 28.7068H61.2781V76.125H54.8449Z" fill="black"/>
</g>
<defs>
<clipPath id="clip0_101_13">
<rect width="85" height="53.125" fill="white" transform="translate(7 23)"/>
</clipPath>
</defs>
</svg>
